<svg xmlns="http://www.w3.org/2000/svg" viewBox="0 0 300 82" width="100%" height="100%">
  <defs>
    <linearGradient id="pinGrad" x1="15%" y1="85%" x2="85%" y2="15%">
      <stop offset="0%" stop-color="#ffffff" stop-opacity="0.6"/>
      <stop offset="35%" stop-color="#f472b6"/>
      <stop offset="70%" stop-color="#e11d48"/>
      <stop offset="100%" stop-color="#e22d8c"/>
    </linearGradient>
  </defs>
  <path d="M 4.00 36.62 L 4.00 36.38 L 3.94 36.19 L 3.81 36.06 L 3.62 36.00 L 3.38 36.00 L 3.19 35.69 L 3.06 35.06 L 3.00 34.12 L 3.00 32.88 L 3.06 31.94 L 3.19 31.31 L 3.38 31.00 L 3.62 31.00 L 3.81 30.62 L 3.94 29.88 L 4.00 28.75 L 4.00 27.25 L 4.06 26.12 L 4.19 25.38 L 4.38 25.00 L 4.62 25.00 L 4.81 24.88 L 4.94 24.62 L 5.00 24.25 L 5.00 23.75 L 5.06 23.38 L 5.19 23.12 L 5.38 23.00 L 5.62 23.00 L 5.81 22.81 L 5.94 22.44 L 6.00 21.88 L 6.00 21.12 L 6.06 20.56 L 6.19 20.19 L 6.38 20.00 L 6.62 20.00 L 6.81 19.88 L 6.94 19.62 L 7.00 19.25 L 7.00 18.75 L 7.06 18.38 L 7.19 18.12 L 7.38 18.00 L 7.62 18.00 L 7.81 17.94 L 7.94 17.81 L 8.00 17.62 L 8.00 17.38 L 8.06 17.19 L 8.19 17.06 L 8.38 17.00 L 8.62 17.00 L 8.81 16.88 L 8.94 16.62 L 9.00 16.25 L 9.00 15.75 L 9.06 15.38 L 9.19 15.12 L 9.38 15.00 L 9.62 15.00 L 9.81 14.94 L 9.94 14.81 L 10.00 14.62 L 10.00 14.38 L 10.06 14.19 L 10.19 14.06 L 10.38 14.00 L 10.62 14.00 L 10.81 13.94 L 10.94 13.81 L 11.00 13.62 L 11.00 13.38 L 11.06 13.19 L 11.19 13.06 L 11.38 13.00 L 11.62 13.00 L 11.81 12.94 L 11.94 12.81 L 12.00 12.62 L 12.00 12.38 L 12.06 12.19 L 12.19 12.06 L 12.38 12.00 L 12.62 12.00 L 12.81 11.88 L 12.94 11.62 L 13.00 11.25 L 13.00 10.75 L 13.12 10.38 L 13.38 10.12 L 13.75 10.00 L 14.25 10.00 L 14.62 9.94 L 14.88 9.81 L 15.00 9.62 L 15.00 9.38 L 15.06 9.19 L 15.19 9.06 L 15.38 9.00 L 15.62 9.00 L 15.81 8.94 L 15.94 8.81 L 16.00 8.62 L 16.00 8.38 L 16.06 8.19 L 16.19 8.06 L 16.38 8.00 L 16.62 8.00 L 16.81 7.94 L 16.94 7.81 L 17.00 7.62 L 17.00 7.38 L 17.12 7.19 L 17.38 7.06 L 17.75 7.00 L 18.25 7.00 L 18.62 6.94 L 18.88 6.81 L 19.00 6.62 L 19.00 6.38 L 19.12 6.19 L 19.38 6.06 L 19.75 6.00 L 20.25 6.00 L 20.62 5.94 L 20.88 5.81 L 21.00 5.62 L 21.00 5.38 L 21.12 5.19 L 21.38 5.06 L 21.75 5.00 L 22.25 5.00 L 22.62 4.94 L 22.88 4.81 L 23.00 4.62 L 23.00 4.38 L 23.25 4.19 L 23.75 4.06 L 24.50 4.00 L 25.50 4.00 L 26.25 3.94 L 26.75 3.81 L 27.00 3.62 L 27.00 3.38 L 27.69 3.19 L 29.06 3.06 L 31.12 3.00 L 33.88 3.00 L 35.94 3.06 L 37.31 3.19 L 38.00 3.38 L 38.00 3.62 L 38.25 3.81 L 38.75 3.94 L 39.50 4.00 L 40.50 4.00 L 41.25 4.06 L 41.75 4.19 L 42.00 4.38 L 42.00 4.62 L 42.12 4.81 L 42.38 4.94 L 42.75 5.00 L 43.25 5.00 L 43.62 5.06 L 43.88 5.19 L 44.00 5.38 L 44.00 5.62 L 44.12 5.81 L 44.38 5.94 L 44.75 6.00 L 45.25 6.00 L 45.62 6.06 L 45.88 6.19 L 46.00 6.38 L 46.00 6.62 L 46.12 6.81 L 46.38 6.94 L 46.75 7.00 L 47.25 7.00 L 47.62 7.06 L 47.88 7.19 L 48.00 7.38 L 48.00 7.62 L 48.06 7.81 L 48.19 7.94 L 48.38 8.00 L 48.62 8.00 L 48.81 8.06 L 48.94 8.19 L 49.00 8.38 L 49.00 8.62 L 49.12 8.81 L 49.38 8.94 L 49.75 9.00 L 50.25 9.00 L 50.62 9.06 L 50.88 9.19 L 51.00 9.38 L 51.00 9.62 L 51.06 9.81 L 51.19 9.94 L 51.38 10.00 L 51.62 10.00 L 51.81 10.06 L 51.94 10.19 L 52.00 10.38 L 52.00 10.62 L 52.06 10.81 L 52.19 10.94 L 52.38 11.00 L 52.62 11.00 L 52.81 11.06 L 52.94 11.19 L 53.00 11.38 L 53.00 11.62 L 53.06 11.81 L 53.19 11.94 L 53.38 12.00 L 53.62 12.00 L 53.81 12.06 L 53.94 12.19 L 54.00 12.38 L 54.00 12.62 L 54.06 12.81 L 54.19 12.94 L 54.38 13.00 L 54.62 13.00 L 54.81 13.06 L 54.94 13.19 L 55.00 13.38 L 55.00 13.62 L 55.06 13.81 L 55.19 13.94 L 55.38 14.00 L 55.62 14.00 L 55.81 14.12 L 55.94 14.38 L 56.00 14.75 L 56.00 15.25 L 56.06 15.62 L 56.19 15.88 L 56.38 16.00 L 56.62 16.00 L 56.81 16.06 L 56.94 16.19 L 57.00 16.38 L 57.00 16.62 L 57.06 16.81 L 57.19 16.94 L 57.38 17.00 L 57.62 17.00 L 57.81 17.12 L 57.94 17.38 L 58.00 17.75 L 58.00 18.25 L 58.06 18.62 L 58.19 18.88 L 58.38 19.00 L 58.62 19.00 L 58.81 19.12 L 58.94 19.38 L 59.00 19.75 L 59.00 20.25 L 59.06 20.62 L 59.19 20.88 L 59.38 21.00 L 59.62 21.00 L 59.81 21.19 L 59.94 21.56 L 60.00 22.12 L 60.00 22.88 L 60.06 23.44 L 60.19 23.81 L 60.38 24.00 L 60.62 24.00 L 60.81 24.25 L 60.94 24.75 L 61.00 25.50 L 61.00 26.50 L 61.06 27.25 L 61.19 27.75 L 61.38 28.00 L 61.62 28.00 L 61.81 28.75 L 61.94 30.25 L 62.00 32.50 L 62.00 35.50 L 61.94 37.75 L 61.81 39.25 L 61.62 40.00 L 61.38 40.00 L 61.19 40.25 L 61.06 40.75 L 61.00 41.50 L 61.00 42.50 L 60.94 43.25 L 60.81 43.75 L 60.62 44.00 L 60.38 44.00 L 60.19 44.12 L 60.06 44.38 L 60.00 44.75 L 60.00 45.25 L 59.94 45.62 L 59.81 45.88 L 59.62 46.00 L 59.38 46.00 L 59.19 46.12 L 59.06 46.38 L 59.00 46.75 L 59.00 47.25 L 58.94 47.62 L 58.81 47.88 L 58.62 48.00 L 58.38 48.00 L 58.19 48.19 L 58.06 48.56 L 58.00 49.12 L 58.00 49.88 L 57.94 50.44 L 57.81 50.81 L 57.62 51.00 L 57.38 51.00 L 57.19 51.06 L 57.06 51.19 L 57.00 51.38 L 57.00 51.62 L 56.94 51.81 L 56.81 51.94 L 56.62 52.00 L 56.38 52.00 L 56.19 52.06 L 56.06 52.19 L 56.00 52.38 L 56.00 52.62 L 55.94 52.81 L 55.81 52.94 L 55.62 53.00 L 55.38 53.00 L 55.19 53.06 L 55.06 53.19 L 55.00 53.38 L 55.00 53.62 L 54.94 53.81 L 54.81 53.94 L 54.62 54.00 L 54.38 54.00 L 54.19 54.12 L 54.06 54.38 L 54.00 54.75 L 54.00 55.25 L 53.94 55.62 L 53.81 55.88 L 53.62 56.00 L 53.38 56.00 L 53.19 56.06 L 53.06 56.19 L 53.00 56.38 L 53.00 56.62 L 52.94 56.81 L 52.81 56.94 L 52.62 57.00 L 52.38 57.00 L 52.19 57.06 L 52.06 57.19 L 52.00 57.38 L 52.00 57.62 L 51.94 57.81 L 51.81 57.94 L 51.62 58.00 L 51.38 58.00 L 51.19 58.06 L 51.06 58.19 L 51.00 58.38 L 51.00 58.62 L 50.94 58.81 L 50.81 58.94 L 50.62 59.00 L 50.38 59.00 L 50.19 59.06 L 50.06 59.19 L 50.00 59.38 L 50.00 59.62 L 49.94 59.81 L 49.81 59.94 L 49.62 60.00 L 49.38 60.00 L 49.19 60.06 L 49.06 60.19 L 49.00 60.38 L 49.00 60.62 L 48.94 60.81 L 48.81 60.94 L 48.62 61.00 L 48.38 61.00 L 48.19 61.06 L 48.06 61.19 L 48.00 61.38 L 48.00 61.62 L 47.94 61.81 L 47.81 61.94 L 47.62 62.00 L 47.38 62.00 L 47.19 62.06 L 47.06 62.19 L 47.00 62.38 L 47.00 62.62 L 46.94 62.81 L 46.81 62.94 L 46.62 63.00 L 46.38 63.00 L 46.19 63.06 L 46.06 63.19 L 46.00 63.38 L 46.00 63.62 L 45.94 63.81 L 45.81 63.94 L 45.62 64.00 L 45.38 64.00 L 45.19 64.06 L 45.06 64.19 L 45.00 64.38 L 45.00 64.62 L 44.94 64.81 L 44.81 64.94 L 44.62 65.00 L 44.38 65.00 L 44.19 65.06 L 44.06 65.19 L 44.00 65.38 L 44.00 65.62 L 43.94 65.81 L 43.81 65.94 L 43.62 66.00 L 43.38 66.00 L 43.19 66.12 L 43.06 66.38 L 43.00 66.75 L 43.00 67.25 L 42.94 67.62 L 42.81 67.88 L 42.62 68.00 L 42.38 68.00 L 42.19 68.06 L 42.06 68.19 L 42.00 68.38 L 42.00 68.62 L 41.94 68.81 L 41.81 68.94 L 41.62 69.00 L 41.38 69.00 L 41.19 69.06 L 41.06 69.19 L 41.00 69.38 L 41.00 69.62 L 40.94 69.81 L 40.81 69.94 L 40.62 70.00 L 40.38 70.00 L 40.19 70.06 L 40.06 70.19 L 40.00 70.38 L 40.00 70.62 L 39.94 70.81 L 39.81 70.94 L 39.62 71.00 L 39.38 71.00 L 39.19 71.06 L 39.06 71.19 L 39.00 71.38 L 39.00 71.62 L 38.94 71.81 L 38.81 71.94 L 38.62 72.00 L 38.38 72.00 L 38.19 72.06 L 38.06 72.19 L 38.00 72.38 L 38.00 72.62 L 37.94 72.81 L 37.81 72.94 L 37.62 73.00 L 37.38 73.00 L 37.19 73.06 L 37.06 73.19 L 37.00 73.38 L 37.00 73.62 L 36.94 73.81 L 36.81 73.94 L 36.62 74.00 L 36.38 74.00 L 36.19 74.06 L 36.06 74.19 L 36.00 74.38 L 36.00 74.62 L 35.94 74.81 L 35.81 74.94 L 35.62 75.00 L 35.38 75.00 L 35.19 75.06 L 35.06 75.19 L 35.00 75.38 L 35.00 75.62 L 34.75 75.81 L 34.25 75.94 L 33.50 76.00 L 32.50 76.00 L 31.75 75.94 L 31.25 75.81 L 31.00 75.62 L 31.00 75.38 L 30.94 75.19 L 30.81 75.06 L 30.62 75.00 L 30.38 75.00 L 30.19 74.94 L 30.06 74.81 L 30.00 74.62 L 30.00 74.38 L 29.94 74.19 L 29.81 74.06 L 29.62 74.00 L 29.38 74.00 L 29.19 73.94 L 29.06 73.81 L 29.00 73.62 L 29.00 73.38 L 28.94 73.19 L 28.81 73.06 L 28.62 73.00 L 28.38 73.00 L 28.19 72.94 L 28.06 72.81 L 28.00 72.62 L 28.00 72.38 L 27.94 72.19 L 27.81 72.06 L 27.62 72.00 L 27.38 72.00 L 27.19 71.81 L 27.06 71.44 L 27.00 70.88 L 27.00 70.12 L 27.06 69.56 L 27.19 69.19 L 27.38 69.00 L 27.62 69.00 L 27.81 68.94 L 27.94 68.81 L 28.00 68.62 L 28.00 68.38 L 28.06 68.19 L 28.19 68.06 L 28.38 68.00 L 28.62 68.00 L 28.81 67.94 L 28.94 67.81 L 29.00 67.62 L 29.00 67.38 L 29.06 67.19 L 29.19 67.06 L 29.38 67.00 L 29.62 67.00 L 29.81 66.94 L 29.94 66.81 L 30.00 66.62 L 30.00 66.38 L 30.06 66.19 L 30.19 66.06 L 30.38 66.00 L 30.62 66.00 L 30.81 65.94 L 30.94 65.81 L 31.00 65.62 L 31.00 65.38 L 31.06 65.19 L 31.19 65.06 L 31.38 65.00 L 31.62 65.00 L 31.81 64.94 L 31.94 64.81 L 32.00 64.62 L 32.00 64.38 L 32.06 64.19 L 32.19 64.06 L 32.38 64.00 L 32.62 64.00 L 32.81 63.88 L 32.94 63.62 L 33.00 63.25 L 33.00 62.75 L 33.06 62.38 L 33.19 62.12 L 33.38 62.00 L 33.62 62.00 L 33.81 61.94 L 33.94 61.81 L 34.00 61.62 L 34.00 61.38 L 34.06 61.19 L 34.19 61.06 L 34.38 61.00 L 34.62 61.00 L 34.81 60.94 L 34.94 60.81 L 35.00 60.62 L 35.00 60.38 L 35.06 60.19 L 35.19 60.06 L 35.38 60.00 L 35.62 60.00 L 35.81 59.88 L 35.94 59.62 L 36.00 59.25 L 36.00 58.75 L 36.06 58.38 L 36.19 58.12 L 36.38 58.00 L 36.62 58.00 L 36.81 57.94 L 36.94 57.81 L 37.00 57.62 L 37.00 57.38 L 37.06 57.19 L 37.19 57.06 L 37.38 57.00 L 37.62 57.00 L 37.81 56.88 L 37.94 56.62 L 38.00 56.25 L 38.00 55.75 L 38.06 55.38 L 38.19 55.12 L 38.38 55.00 L 38.62 55.00 L 38.81 54.81 L 38.94 54.44 L 39.00 53.88 L 39.00 53.12 L 39.06 52.56 L 39.19 52.19 L 39.38 52.00 L 39.62 52.00 L 39.81 51.81 L 39.94 51.44 L 40.00 50.88 L 40.00 50.12 L 40.06 49.56 L 40.19 49.19 L 40.38 49.00 L 40.62 49.00 L 40.81 48.75 L 40.94 48.25 L 41.00 47.50 L 41.00 46.50 L 40.94 45.75 L 40.81 45.25 L 40.62 45.00 L 40.38 45.00 L 40.19 44.81 L 40.06 44.44 L 40.00 43.88 L 40.00 43.12 L 39.94 42.56 L 39.81 42.19 L 39.62 42.00 L 39.38 42.00 L 39.19 41.88 L 39.06 41.62 L 39.00 41.25 L 39.00 40.75 L 38.94 40.38 L 38.81 40.12 L 38.62 40.00 L 38.38 40.00 L 38.19 39.94 L 38.06 39.81 L 38.00 39.62 L 38.00 39.38 L 37.94 39.19 L 37.81 39.06 L 37.62 39.00 L 37.38 39.00 L 37.19 38.94 L 37.06 38.81 L 37.00 38.62 L 37.00 38.38 L 36.94 38.19 L 36.81 38.06 L 36.62 38.00 L 36.38 38.00 L 36.19 38.06 L 36.06 38.19 L 36.00 38.38 L 36.00 38.62 L 36.06 38.81 L 36.19 38.94 L 36.38 39.00 L 36.62 39.00 L 36.81 39.06 L 36.94 39.19 L 37.00 39.38 L 37.00 39.62 L 37.06 39.81 L 37.19 39.94 L 37.38 40.00 L 37.62 40.00 L 37.81 40.12 L 37.94 40.38 L 38.00 40.75 L 38.00 41.25 L 38.06 41.62 L 38.19 41.88 L 38.38 42.00 L 38.62 42.00 L 38.81 42.31 L 38.94 42.94 L 39.00 43.88 L 39.00 45.12 L 38.94 46.06 L 38.81 46.69 L 38.62 47.00 L 38.38 47.00 L 38.19 47.19 L 38.06 47.56 L 38.00 48.12 L 38.00 48.88 L 37.94 49.44 L 37.81 49.81 L 37.62 50.00 L 37.38 50.00 L 37.19 50.12 L 37.06 50.38 L 37.00 50.75 L 37.00 51.25 L 36.94 51.62 L 36.81 51.88 L 36.62 52.00 L 36.38 52.00 L 36.19 52.06 L 36.06 52.19 L 36.00 52.38 L 36.00 52.62 L 35.94 52.81 L 35.81 52.94 L 35.62 53.00 L 35.38 53.00 L 35.19 53.12 L 35.06 53.38 L 35.00 53.75 L 35.00 54.25 L 34.94 54.62 L 34.81 54.88 L 34.62 55.00 L 34.38 55.00 L 34.19 55.06 L 34.06 55.19 L 34.00 55.38 L 34.00 55.62 L 33.94 55.81 L 33.81 55.94 L 33.62 56.00 L 33.38 56.00 L 33.19 56.06 L 33.06 56.19 L 33.00 56.38 L 33.00 56.62 L 32.94 56.81 L 32.81 56.94 L 32.62 57.00 L 32.38 57.00 L 32.19 57.06 L 32.06 57.19 L 32.00 57.38 L 32.00 57.62 L 31.94 57.81 L 31.81 57.94 L 31.62 58.00 L 31.38 58.00 L 31.19 58.12 L 31.06 58.38 L 31.00 58.75 L 31.00 59.25 L 30.94 59.62 L 30.81 59.88 L 30.62 60.00 L 30.38 60.00 L 30.19 60.06 L 30.06 60.19 L 30.00 60.38 L 30.00 60.62 L 29.94 60.81 L 29.81 60.94 L 29.62 61.00 L 29.38 61.00 L 29.19 61.06 L 29.06 61.19 L 29.00 61.38 L 29.00 61.62 L 28.94 61.81 L 28.81 61.94 L 28.62 62.00 L 28.38 62.00 L 28.19 62.06 L 28.06 62.19 L 28.00 62.38 L 28.00 62.62 L 27.94 62.81 L 27.81 62.94 L 27.62 63.00 L 27.38 63.00 L 27.19 63.06 L 27.06 63.19 L 27.00 63.38 L 27.00 63.62 L 26.94 63.81 L 26.81 63.94 L 26.62 64.00 L 26.38 64.00 L 26.19 64.06 L 26.06 64.19 L 26.00 64.38 L 26.00 64.62 L 25.94 64.81 L 25.81 64.94 L 25.62 65.00 L 25.38 65.00 L 25.19 65.06 L 25.06 65.19 L 25.00 65.38 L 25.00 65.62 L 24.88 65.81 L 24.62 65.94 L 24.25 66.00 L 23.75 66.00 L 23.38 66.06 L 23.12 66.19 L 23.00 66.38 L 23.00 66.62 L 22.94 66.81 L 22.81 66.94 L 22.62 67.00 L 22.38 67.00 L 22.19 66.94 L 22.06 66.81 L 22.00 66.62 L 22.00 66.38 L 21.94 66.19 L 21.81 66.06 L 21.62 66.00 L 21.38 66.00 L 21.19 65.94 L 21.06 65.81 L 21.00 65.62 L 21.00 65.38 L 20.94 65.19 L 20.81 65.06 L 20.62 65.00 L 20.38 65.00 L 20.19 64.94 L 20.06 64.81 L 20.00 64.62 L 20.00 64.38 L 19.94 64.19 L 19.81 64.06 L 19.62 64.00 L 19.38 64.00 L 19.19 63.94 L 19.06 63.81 L 19.00 63.62 L 19.00 63.38 L 18.94 63.19 L 18.81 63.06 L 18.62 63.00 L 18.38 63.00 L 18.19 62.94 L 18.06 62.81 L 18.00 62.62 L 18.00 62.38 L 17.94 62.19 L 17.81 62.06 L 17.62 62.00 L 17.38 62.00 L 17.19 61.94 L 17.06 61.81 L 17.00 61.62 L 17.00 61.38 L 16.94 61.19 L 16.81 61.06 L 16.62 61.00 L 16.38 61.00 L 16.19 60.94 L 16.06 60.81 L 16.00 60.62 L 16.00 60.38 L 15.94 60.19 L 15.81 60.06 L 15.62 60.00 L 15.38 60.00 L 15.19 59.94 L 15.06 59.81 L 15.00 59.62 L 15.00 59.38 L 14.94 59.19 L 14.81 59.06 L 14.62 59.00 L 14.38 59.00 L 14.19 58.94 L 14.06 58.81 L 14.00 58.62 L 14.00 58.38 L 13.94 58.19 L 13.81 58.06 L 13.62 58.00 L 13.38 58.00 L 13.19 57.88 L 13.06 57.62 L 13.00 57.25 L 13.00 56.75 L 12.94 56.38 L 12.81 56.12 L 12.62 56.00 L 12.38 56.00 L 12.19 55.94 L 12.06 55.81 L 12.00 55.62 L 12.00 55.38 L 11.94 55.19 L 11.81 55.06 L 11.62 55.00 L 11.38 55.00 L 11.19 54.94 L 11.06 54.81 L 11.00 54.62 L 11.00 54.38 L 10.94 54.19 L 10.81 54.06 L 10.62 54.00 L 10.38 54.00 L 10.19 53.94 L 10.06 53.81 L 10.00 53.62 L 10.00 53.38 L 9.94 53.19 L 9.81 53.06 L 9.62 53.00 L 9.38 53.00 L 9.19 52.94 L 9.06 52.81 L 9.00 52.62 L 9.00 52.38 L 8.94 52.19 L 8.81 52.06 L 8.62 52.00 L 8.38 52.00 L 8.19 51.88 L 8.06 51.62 L 8.00 51.25 L 8.00 50.75 L 7.94 50.38 L 7.81 50.12 L 7.62 50.00 L 7.38 50.00 L 7.19 49.88 L 7.06 49.62 L 7.00 49.25 L 7.00 48.75 L 6.94 48.38 L 6.81 48.12 L 6.62 48.00 L 6.38 48.00 L 6.19 47.88 L 6.06 47.62 L 6.00 47.25 L 6.00 46.75 L 5.94 46.38 L 5.81 46.12 L 5.62 46.00 L 5.38 46.00 L 5.19 45.81 L 5.06 45.44 L 5.00 44.88 L 5.00 44.12 L 4.94 43.56 L 4.81 43.19 L 4.62 43.00 L 4.38 43.00 L 4.19 42.62 L 4.06 41.88 L 4.00 40.75 L 4.00 39.25 L 4.00 38.06 L 4.00 37.19 Z M 18.38 49.00 L 18.62 49.00 L 18.81 49.06 L 18.94 49.19 L 19.00 49.38 L 19.00 49.62 L 19.06 49.81 L 19.19 49.94 L 19.38 50.00 L 19.62 50.00 L 19.81 50.06 L 19.94 50.19 L 20.00 50.38 L 20.00 50.62 L 20.06 50.81 L 20.19 50.94 L 20.38 51.00 L 20.62 51.00 L 20.81 51.06 L 20.94 51.19 L 21.00 51.38 L 21.00 51.62 L 21.06 51.81 L 21.19 51.94 L 21.38 52.00 L 21.62 52.00 L 21.81 52.06 L 21.94 52.19 L 22.00 52.38 L 22.00 52.62 L 22.06 52.81 L 22.19 52.94 L 22.38 53.00 L 22.62 53.00 L 22.81 53.06 L 22.94 53.19 L 23.00 53.38 L 23.00 53.62 L 23.06 53.81 L 23.19 53.94 L 23.38 54.00 L 23.62 54.00 L 23.81 53.94 L 23.94 53.81 L 24.00 53.62 L 24.00 53.38 L 24.06 53.19 L 24.19 53.06 L 24.38 53.00 L 24.62 53.00 L 24.81 52.94 L 24.94 52.81 L 25.00 52.62 L 25.00 52.38 L 25.06 52.19 L 25.19 52.06 L 25.38 52.00 L 25.62 52.00 L 25.81 51.94 L 25.94 51.81 L 26.00 51.62 L 26.00 51.38 L 26.06 51.19 L 26.19 51.06 L 26.38 51.00 L 26.62 51.00 L 26.81 50.94 L 26.94 50.81 L 27.00 50.62 L 27.00 50.38 L 27.06 50.19 L 27.19 50.06 L 27.38 50.00 L 27.62 50.00 L 27.81 49.94 L 27.94 49.81 L 28.00 49.62 L 28.00 49.38 L 28.06 49.19 L 28.19 49.06 L 28.38 49.00 L 28.62 49.00 L 28.81 48.88 L 28.94 48.62 L 29.00 48.25 L 29.00 47.75 L 29.06 47.38 L 29.19 47.12 L 29.38 47.00 L 29.62 47.00 L 29.81 46.88 L 29.94 46.62 L 30.00 46.25 L 30.00 45.75 L 30.06 45.38 L 30.19 45.12 L 30.38 45.00 L 30.62 45.00 L 30.81 44.94 L 30.94 44.81 L 31.00 44.62 L 31.00 44.38 L 30.94 44.19 L 30.81 44.06 L 30.62 44.00 L 30.38 44.00 L 30.19 43.88 L 30.06 43.62 L 30.00 43.25 L 30.00 42.75 L 29.94 42.38 L 29.81 42.12 L 29.62 42.00 L 29.38 42.00 L 29.19 41.94 L 29.06 41.81 L 29.00 41.62 L 29.00 41.38 L 28.94 41.19 L 28.81 41.06 L 28.62 41.00 L 28.38 41.00 L 28.19 40.88 L 28.06 40.62 L 28.00 40.25 L 28.00 39.75 L 27.94 39.38 L 27.81 39.12 L 27.62 39.00 L 27.38 39.00 L 27.19 38.94 L 27.06 38.81 L 27.00 38.62 L 27.00 38.38 L 26.94 38.19 L 26.81 38.06 L 26.62 38.00 L 26.38 38.00 L 26.19 37.94 L 26.06 37.81 L 26.00 37.62 L 26.00 37.38 L 25.94 37.19 L 25.81 37.06 L 25.62 37.00 L 25.38 37.00 L 25.19 36.94 L 25.06 36.81 L 25.00 36.62 L 25.00 36.38 L 24.94 36.19 L 24.81 36.06 L 24.62 36.00 L 24.38 36.00 L 24.19 35.94 L 24.06 35.81 L 24.00 35.62 L 24.00 35.38 L 23.94 35.19 L 23.81 35.06 L 23.62 35.00 L 23.38 35.00 L 23.19 34.88 L 23.06 34.62 L 23.00 34.25 L 23.00 33.75 L 22.94 33.38 L 22.81 33.12 L 22.62 33.00 L 22.38 33.00 L 22.19 32.81 L 22.06 32.44 L 22.00 31.88 L 22.00 31.12 L 22.06 30.56 L 22.19 30.19 L 22.38 30.00 L 22.62 30.00 L 22.81 29.88 L 22.94 29.62 L 23.00 29.25 L 23.00 28.75 L 23.06 28.38 L 23.19 28.12 L 23.38 28.00 L 23.62 28.00 L 23.81 27.94 L 23.94 27.81 L 24.00 27.62 L 24.00 27.38 L 24.06 27.19 L 24.19 27.06 L 24.38 27.00 L 24.62 27.00 L 24.81 26.94 L 24.94 26.81 L 25.00 26.62 L 25.00 26.38 L 25.06 26.19 L 25.19 26.06 L 25.38 26.00 L 25.62 26.00 L 25.81 25.94 L 25.94 25.81 L 26.00 25.62 L 26.00 25.38 L 26.06 25.19 L 26.19 25.06 L 26.38 25.00 L 26.62 25.00 L 26.81 24.94 L 26.94 24.81 L 27.00 24.62 L 27.00 24.38 L 27.12 24.19 L 27.38 24.06 L 27.75 24.00 L 28.25 24.00 L 28.62 23.94 L 28.88 23.81 L 29.00 23.62 L 29.00 23.38 L 29.12 23.19 L 29.38 23.06 L 29.75 23.00 L 30.25 23.00 L 30.62 22.94 L 30.88 22.81 L 31.00 22.62 L 31.00 22.38 L 31.12 22.19 L 31.38 22.06 L 31.75 22.00 L 32.25 22.00 L 32.62 21.94 L 32.88 21.81 L 33.00 21.62 L 33.00 21.38 L 33.12 21.19 L 33.38 21.06 L 33.75 21.00 L 34.25 21.00 L 34.62 20.94 L 34.88 20.81 L 35.00 20.62 L 35.00 20.38 L 35.19 20.19 L 35.56 20.06 L 36.12 20.00 L 36.88 20.00 L 37.44 19.94 L 37.81 19.81 L 38.00 19.62 L 38.00 19.38 L 38.12 19.19 L 38.38 19.06 L 38.75 19.00 L 39.25 19.00 L 39.62 18.94 L 39.88 18.81 L 40.00 18.62 L 40.00 18.38 L 40.19 18.19 L 40.56 18.06 L 41.12 18.00 L 41.88 18.00 L 42.44 17.88 L 42.81 17.62 L 43.00 17.25 L 43.00 16.75 L 42.94 16.38 L 42.81 16.12 L 42.62 16.00 L 42.38 16.00 L 42.19 15.94 L 42.06 15.81 L 42.00 15.62 L 42.00 15.38 L 41.81 15.19 L 41.44 15.06 L 40.88 15.00 L 40.12 15.00 L 39.56 14.94 L 39.19 14.81 L 39.00 14.62 L 39.00 14.38 L 38.75 14.19 L 38.25 14.06 L 37.50 14.00 L 36.50 14.00 L 35.75 13.94 L 35.25 13.81 L 35.00 13.62 L 35.00 13.38 L 34.62 13.19 L 33.88 13.06 L 32.75 13.00 L 31.25 13.00 L 30.12 13.06 L 29.38 13.19 L 29.00 13.38 L 29.00 13.62 L 28.81 13.81 L 28.44 13.94 L 27.88 14.00 L 27.12 14.00 L 26.56 14.06 L 26.19 14.19 L 26.00 14.38 L 26.00 14.62 L 25.81 14.81 L 25.44 14.94 L 24.88 15.00 L 24.12 15.00 L 23.56 15.06 L 23.19 15.19 L 23.00 15.38 L 23.00 15.62 L 22.94 15.81 L 22.81 15.94 L 22.62 16.00 L 22.38 16.00 L 22.19 16.06 L 22.06 16.19 L 22.00 16.38 L 22.00 16.62 L 21.94 16.81 L 21.81 16.94 L 21.62 17.00 L 21.38 17.00 L 21.19 17.06 L 21.06 17.19 L 21.00 17.38 L 21.00 17.62 L 20.88 17.81 L 20.62 17.94 L 20.25 18.00 L 19.75 18.00 L 19.38 18.06 L 19.12 18.19 L 19.00 18.38 L 19.00 18.62 L 18.94 18.81 L 18.81 18.94 L 18.62 19.00 L 18.38 19.00 L 18.19 19.12 L 18.06 19.38 L 18.00 19.75 L 18.00 20.25 L 17.94 20.62 L 17.81 20.88 L 17.62 21.00 L 17.38 21.00 L 17.19 21.06 L 17.06 21.19 L 17.00 21.38 L 17.00 21.62 L 16.94 21.81 L 16.81 21.94 L 16.62 22.00 L 16.38 22.00 L 16.19 22.12 L 16.06 22.38 L 16.00 22.75 L 16.00 23.25 L 15.94 23.62 L 15.81 23.88 L 15.62 24.00 L 15.38 24.00 L 15.19 24.12 L 15.06 24.38 L 15.00 24.75 L 15.00 25.25 L 14.94 25.62 L 14.81 25.88 L 14.62 26.00 L 14.38 26.00 L 14.19 26.19 L 14.06 26.56 L 14.00 27.12 L 14.00 27.88 L 13.94 28.44 L 13.81 28.81 L 13.62 29.00 L 13.38 29.00 L 13.19 29.62 L 13.06 30.88 L 13.00 32.75 L 13.00 35.25 L 13.06 37.12 L 13.19 38.38 L 13.38 39.00 L 13.62 39.00 L 13.81 39.19 L 13.94 39.56 L 14.00 40.12 L 14.00 40.88 L 14.06 41.44 L 14.19 41.81 L 14.38 42.00 L 14.62 42.00 L 14.81 42.12 L 14.94 42.38 L 15.00 42.75 L 15.00 43.25 L 15.06 43.62 L 15.19 43.88 L 15.38 44.00 L 15.62 44.00 L 15.81 44.12 L 15.94 44.38 L 16.00 44.75 L 16.00 45.25 L 16.06 45.62 L 16.19 45.88 L 16.38 46.00 L 16.62 46.00 L 16.81 46.06 L 16.94 46.19 L 17.00 46.38 L 17.00 46.62 L 17.06 46.81 L 17.19 46.94 L 17.38 47.00 L 17.62 47.00 L 17.81 47.12 L 17.94 47.38 L 18.00 47.75 L 18.00 48.25 L 18.06 48.62 L 18.19 48.88 Z M 42.38 36.00 L 42.62 36.00 L 42.81 36.06 L 42.94 36.19 L 43.00 36.38 L 43.00 36.62 L 43.06 36.81 L 43.19 36.94 L 43.38 37.00 L 43.62 37.00 L 43.81 37.06 L 43.94 37.19 L 44.00 37.38 L 44.00 37.62 L 44.12 37.81 L 44.38 37.94 L 44.75 38.00 L 45.25 38.00 L 45.62 38.06 L 45.88 38.19 L 46.00 38.38 L 46.00 38.62 L 46.06 38.81 L 46.19 38.94 L 46.38 39.00 L 46.62 39.00 L 46.81 39.06 L 46.94 39.19 L 47.00 39.38 L 47.00 39.62 L 47.06 39.81 L 47.19 39.94 L 47.38 40.00 L 47.62 40.00 L 47.81 40.12 L 47.94 40.38 L 48.00 40.75 L 48.00 41.25 L 48.06 41.62 L 48.19 41.88 L 48.38 42.00 L 48.62 42.00 L 48.81 42.12 L 48.94 42.38 L 49.00 42.75 L 49.00 43.25 L 49.06 43.62 L 49.19 43.88 L 49.38 44.00 L 49.62 44.00 L 49.81 43.94 L 49.94 43.81 L 50.00 43.62 L 50.00 43.38 L 50.06 43.19 L 50.19 43.06 L 50.38 43.00 L 50.62 43.00 L 50.81 42.81 L 50.94 42.44 L 51.00 41.88 L 51.00 41.12 L 51.06 40.56 L 51.19 40.19 L 51.38 40.00 L 51.62 40.00 L 51.81 39.25 L 51.94 37.75 L 52.00 35.50 L 52.00 32.50 L 51.94 30.25 L 51.81 28.75 L 51.62 28.00 L 51.38 28.00 L 51.19 27.81 L 51.06 27.44 L 51.00 26.88 L 51.00 26.12 L 50.94 25.56 L 50.81 25.19 L 50.62 25.00 L 50.38 25.00 L 50.19 24.88 L 50.06 24.62 L 50.00 24.25 L 50.00 23.75 L 49.94 23.38 L 49.81 23.12 L 49.62 23.00 L 49.38 23.00 L 49.19 22.88 L 49.06 22.62 L 49.00 22.25 L 49.00 21.75 L 48.94 21.38 L 48.81 21.12 L 48.62 21.00 L 48.38 21.00 L 48.19 20.94 L 48.06 20.81 L 48.00 20.62 L 48.00 20.38 L 47.94 20.19 L 47.81 20.06 L 47.62 20.00 L 47.38 20.00 L 47.19 19.94 L 47.06 19.81 L 47.00 19.62 L 47.00 19.38 L 46.94 19.19 L 46.81 19.06 L 46.62 19.00 L 46.38 19.00 L 46.19 18.94 L 46.06 18.81 L 46.00 18.62 L 46.00 18.38 L 45.94 18.19 L 45.81 18.06 L 45.62 18.00 L 45.38 18.00 L 45.19 18.06 L 45.06 18.19 L 45.00 18.38 L 45.00 18.62 L 44.88 18.81 L 44.62 18.94 L 44.25 19.00 L 43.75 19.00 L 43.38 19.06 L 43.12 19.19 L 43.00 19.38 L 43.00 19.62 L 42.94 19.81 L 42.81 19.94 L 42.62 20.00 L 42.38 20.00 L 42.19 20.06 L 42.06 20.19 L 42.00 20.38 L 42.00 20.62 L 41.88 20.81 L 41.62 20.94 L 41.25 21.00 L 40.75 21.00 L 40.38 21.06 L 40.12 21.19 L 40.00 21.38 L 40.00 21.62 L 39.88 21.81 L 39.62 21.94 L 39.25 22.00 L 38.75 22.00 L 38.38 22.06 L 38.12 22.19 L 38.00 22.38 L 38.00 22.62 L 37.94 22.81 L 37.81 22.94 L 37.62 23.00 L 37.38 23.00 L 37.19 23.06 L 37.06 23.19 L 37.00 23.38 L 37.00 23.62 L 36.94 23.81 L 36.81 23.94 L 36.62 24.00 L 36.38 24.00 L 36.19 24.06 L 36.06 24.19 L 36.00 24.38 L 36.00 24.62 L 35.94 24.81 L 35.81 24.94 L 35.62 25.00 L 35.38 25.00 L 35.19 25.12 L 35.06 25.38 L 35.00 25.75 L 35.00 26.25 L 34.94 26.62 L 34.81 26.88 L 34.62 27.00 L 34.38 27.00 L 34.19 27.12 L 34.06 27.38 L 34.00 27.75 L 34.00 28.25 L 34.06 28.62 L 34.19 28.88 L 34.38 29.00 L 34.62 29.00 L 34.81 29.12 L 34.94 29.38 L 35.00 29.75 L 35.00 30.25 L 35.06 30.62 L 35.19 30.88 L 35.38 31.00 L 35.62 31.00 L 35.81 31.06 L 35.94 31.19 L 36.00 31.38 L 36.00 31.62 L 36.12 31.81 L 36.38 31.94 L 36.75 32.00 L 37.25 32.00 L 37.62 32.06 L 37.88 32.19 L 38.00 32.38 L 38.00 32.62 L 38.06 32.81 L 38.19 32.94 L 38.38 33.00 L 38.62 33.00 L 38.81 33.06 L 38.94 33.19 L 39.00 33.38 L 39.00 33.62 L 39.06 33.81 L 39.19 33.94 L 39.38 34.00 L 39.62 34.00 L 39.81 34.06 L 39.94 34.19 L 40.00 34.38 L 40.00 34.62 L 40.12 34.81 L 40.38 34.94 L 40.75 35.00 L 41.25 35.00 L 41.62 35.06 L 41.88 35.19 L 42.00 35.38 L 42.00 35.62 L 42.06 35.81 L 42.19 35.94 Z M 33.00 35.38 L 33.00 35.62 L 33.06 35.81 L 33.19 35.94 L 33.38 36.00 L 33.62 36.00 L 33.81 36.06 L 33.94 36.19 L 34.00 36.38 L 34.00 36.62 L 34.06 36.81 L 34.19 36.94 L 34.38 37.00 L 34.62 37.00 L 34.81 36.94 L 34.94 36.81 L 35.00 36.62 L 35.00 36.38 L 34.94 36.19 L 34.81 36.06 L 34.62 36.00 L 34.38 36.00 L 34.19 35.94 L 34.06 35.81 L 34.00 35.62 L 34.00 35.38 L 33.94 35.19 L 33.81 35.06 L 33.62 35.00 L 33.38 35.00 L 33.19 35.06 L 33.06 35.19 Z" fill="url(#pinGrad)" fill-rule="evenodd"/>
  <text x="80" y="47" font-family="system-ui, -apple-system, BlinkMacSystemFont, 'Segoe UI', Roboto, 'Helvetica Neue', sans-serif" font-size="38.5" font-weight="900" fill="#ffffff" letter-spacing="1.2">DEIN WEG</text>
  <text x="81" y="73" font-family="system-ui, -apple-system, BlinkMacSystemFont, 'Segoe UI', Roboto, 'Helvetica Neue', sans-serif" font-size="14.5" font-weight="600" fill="#cbd5e1" letter-spacing="0.3">Ambulant Betreutes Wohnen</text>
</svg>